<svg width="28" height="27" viewBox="0 0 28 27" fill="none" xmlns="http://www.w3.org/2000/svg">
<path d="M8.60005 0.227295C4.29954 0.227295 0.800049 3.72678 0.800049 8.02729L0.800049 18.8273C0.800049 23.1278 4.29954 26.6273 8.60005 26.6273L19.4 26.6273C23.7006 26.6273 27.2 23.1278 27.2 18.8273L27.2 8.02729C27.2 3.72678 23.7006 0.227295 19.4 0.227295L8.60005 0.227295ZM8.60005 1.42729L19.4 1.42729C23.0519 1.42729 26 4.3754 26 8.02729L26 18.8273C26 22.4792 23.0519 25.4273 19.4 25.4273L8.60005 25.4273C4.94816 25.4273 2.00005 22.4792 2.00005 18.8273L2.00005 8.02729C2.00005 4.3754 4.94816 1.42729 8.60005 1.42729ZM21.2 5.02729C20.8818 5.02729 20.5766 5.15372 20.3515 5.37877C20.1265 5.60381 20 5.90903 20 6.22729C20 6.54555 20.1265 6.85078 20.3515 7.07582C20.5766 7.30087 20.8818 7.42729 21.2 7.42729C21.5183 7.42729 21.8235 7.30087 22.0486 7.07582C22.2736 6.85078 22.4 6.54555 22.4 6.22729C22.4 5.90903 22.2736 5.60381 22.0486 5.37877C21.8235 5.15372 21.5183 5.02729 21.2 5.02729ZM14 6.82729C10.3621 6.82729 7.40005 9.78932 7.40005 13.4273C7.40005 17.0653 10.3621 20.0273 14 20.0273C17.638 20.0273 20.6 17.0653 20.6 13.4273C20.6 9.78932 17.638 6.82729 14 6.82729ZM14 8.02729C16.9895 8.02729 19.4 10.4378 19.4 13.4273C19.4 16.4167 16.9895 18.8273 14 18.8273C11.0106 18.8273 8.60005 16.4167 8.60005 13.4273C8.60005 10.4378 11.0106 8.02729 14 8.02729Z" fill="white"/>
</svg>
