<svg width="22" height="22" viewBox="0 0 22 22" fill="none" xmlns="http://www.w3.org/2000/svg">
<path fill-rule="evenodd" clip-rule="evenodd" d="M11.8644 18.2709L14.9551 15.1801C15.2978 14.8375 15.8368 14.7898 16.2343 15.067L20.6545 18.1499C21.1651 18.506 21.2298 19.237 20.7896 19.6772L20.0087 20.4581C19.2985 21.1683 18.2815 21.476 17.3222 21.1783C14.9787 20.4513 10.4063 18.6543 6.63879 14.8868C2.8713 11.1194 1.07437 6.54696 0.347304 4.20344C0.04967 3.24409 0.3573 2.22717 1.06756 1.51691L1.84843 0.736041C2.2886 0.295869 3.01965 0.360512 3.37575 0.871093L6.45863 5.29133C6.73585 5.6888 6.68818 6.22784 6.34552 6.57049L3.25474 9.66128" fill="white"/>
</svg>
