<svg width="30" height="26" viewBox="0 0 30 26" fill="none" xmlns="http://www.w3.org/2000/svg">
<path d="M20.5312 0.708496C16.9429 0.708496 14.025 3.62646 14.025 7.21475C14.025 7.43037 14.0789 7.64131 14.1 7.85225C9.66323 7.42803 5.7398 5.29053 3.07495 2.021C2.95073 1.86396 2.75855 1.77959 2.55698 1.79365C2.35777 1.80771 2.17964 1.92256 2.0812 2.096C1.52105 3.05928 1.19995 4.16787 1.19995 5.3585C1.19995 6.7999 1.71558 8.11943 2.51245 9.20225C2.35777 9.13428 2.18902 9.09678 2.0437 9.01475C1.85855 8.91631 1.63589 8.921 1.45542 9.02881C1.27495 9.13662 1.1648 9.33115 1.16245 9.53975V9.61475C1.16245 11.8249 2.3062 13.7444 3.9937 14.921C3.97495 14.9187 3.9562 14.9257 3.93745 14.921C3.7312 14.8858 3.52261 14.9585 3.38433 15.1155C3.24605 15.2726 3.20152 15.4905 3.26245 15.6897C3.93277 17.7733 5.6437 19.3647 7.76245 19.946C6.07495 20.9491 4.11792 21.5397 2.0062 21.5397C1.54917 21.5397 1.11089 21.5163 0.674953 21.4647C0.393703 21.4272 0.124171 21.5913 0.0304213 21.8585C-0.0656725 22.1257 0.0397963 22.4233 0.281203 22.571C2.98823 24.3077 6.20152 25.3272 9.6562 25.3272C15.2554 25.3272 19.6476 22.9882 22.5937 19.646C25.5398 16.3038 27.075 11.9632 27.075 7.9085C27.075 7.7374 27.0609 7.571 27.0562 7.40225C28.1554 6.56084 29.1375 5.57412 29.9062 4.421C30.0585 4.19834 30.0421 3.90068 29.8664 3.69443C29.6929 3.48818 29.4 3.4249 29.1562 3.53975C28.8468 3.67803 28.4859 3.69209 28.1625 3.80225C28.589 3.23271 28.9546 2.61865 29.175 1.92725C29.25 1.69053 29.1679 1.43037 28.9734 1.27568C28.7789 1.12334 28.507 1.10459 28.2937 1.2335C27.2695 1.84053 26.1351 2.26709 24.9375 2.52725C23.775 1.43975 22.2445 0.708496 20.5312 0.708496ZM20.5312 1.9085C22.0617 1.9085 23.4445 2.5624 24.4125 3.596C24.5578 3.746 24.771 3.80928 24.975 3.76475C25.7578 3.61006 26.5007 3.38271 27.225 3.08975C26.8078 3.65225 26.2921 4.13271 25.6875 4.496C25.4132 4.62959 25.2843 4.946 25.3851 5.23428C25.4835 5.52021 25.7835 5.68662 26.0812 5.621C26.6812 5.54834 27.2156 5.30459 27.7875 5.15225C27.2742 5.70771 26.7117 6.20928 26.1 6.65225C25.9335 6.77412 25.8421 6.971 25.8562 7.17725C25.8656 7.421 25.875 7.6624 25.875 7.9085C25.875 11.6585 24.4359 15.7296 21.6937 18.8397C18.9515 21.9499 14.925 24.1272 9.6562 24.1272C7.26323 24.1272 5.00386 23.5976 2.96245 22.6647C5.4937 22.4702 7.82808 21.5749 9.71245 20.096C9.90933 19.939 9.98667 19.6765 9.90698 19.4374C9.8273 19.1983 9.60698 19.0343 9.3562 19.0272C7.37808 18.9921 5.72105 17.8413 4.83745 16.2147C4.87027 16.2147 4.89839 16.2147 4.9312 16.2147C5.52417 16.2147 6.11011 16.1397 6.6562 15.9897C6.9187 15.9124 7.09917 15.6687 7.0898 15.3944C7.08042 15.1202 6.88589 14.8858 6.6187 14.8272C4.48355 14.396 2.88277 12.6569 2.51245 10.496C3.11714 10.7046 3.73589 10.8687 4.4062 10.8897C4.68042 10.9062 4.92886 10.7351 5.01323 10.4749C5.09761 10.2147 4.99448 9.92881 4.76245 9.7835C3.33745 8.82959 2.39995 7.20537 2.39995 5.3585C2.39995 4.67412 2.57808 4.046 2.81245 3.446C5.81245 6.73896 10.0125 8.92568 14.7562 9.16475C14.9437 9.17412 15.1265 9.09678 15.2484 8.95381C15.3703 8.8085 15.4171 8.61631 15.375 8.4335C15.2835 8.04443 15.225 7.63193 15.225 7.21475C15.225 4.27568 17.5921 1.9085 20.5312 1.9085Z" fill="white"/>
</svg>
