<svg width="30" height="23" viewBox="0 0 30 23" fill="none" xmlns="http://www.w3.org/2000/svg">
<path d="M14.5936 0.547363C10.1046 0.547363 5.8891 0.887363 3.64457 1.36283C2.1491 1.70283 0.855508 2.72283 0.58457 4.28736C0.313633 5.9183 0.0400391 8.36736 0.0400391 11.4274C0.0400391 14.4874 0.310977 16.8674 0.650977 18.5674C0.92457 20.0628 2.21551 21.1519 3.71098 21.4919C6.09363 21.9674 10.171 22.3074 14.66 22.3074C19.1491 22.3074 23.2264 21.9674 25.6064 21.4919C27.1046 21.1519 28.3955 20.1319 28.6664 18.5674C28.94 16.8674 29.28 14.421 29.3464 11.361C29.3464 8.30096 29.0064 5.85189 28.6664 4.15189C28.3955 2.65643 27.1046 1.56736 25.6064 1.22736C23.2264 0.887363 19.08 0.547363 14.5936 0.547363ZM14.5936 1.90736C19.4891 1.90736 23.431 2.31377 25.3355 2.65377C26.3555 2.92736 27.171 3.60736 27.3064 4.49189C27.7155 6.66736 27.9864 8.98096 27.9864 11.361C27.92 14.2828 27.58 16.6628 27.3064 18.3628C27.1046 19.6538 25.7446 20.0628 25.3355 20.201C22.8864 20.6764 18.8064 21.0138 14.7264 21.0138C10.6464 21.0138 6.50004 20.7428 4.12004 20.201C3.10004 19.9274 2.28457 19.2474 2.1491 18.3628C1.60457 16.4583 1.40004 13.9428 1.40004 11.4274C1.40004 8.2983 1.67363 5.98736 1.94457 4.56096C2.1491 3.26736 3.57551 2.8583 3.91551 2.72283C6.16004 2.24736 10.3091 1.90736 14.5936 1.90736ZM10.92 5.98736L10.92 16.8674L20.44 11.4274L10.92 5.98736ZM12.28 8.30096L17.72 11.4274L12.28 14.5538L12.28 8.30096Z" fill="white"/>
</svg>
